<!DOCTYPE svg PUBLIC "-//W3C//DTD SVG 1.1//EN" "http://www.w3.org/Graphics/SVG/1.1/DTD/svg11.dtd">
<!-- Uploaded to: SVG Repo, www.svgrepo.com, Transformed by: SVG Repo Mixer Tools -->
<svg width="800px" height="800px" viewBox="0 0 36 36" xmlns="http://www.w3.org/2000/svg" xmlns:xlink="http://www.w3.org/1999/xlink" aria-hidden="true" role="img" class="iconify iconify--twemoji" preserveAspectRatio="xMidYMid meet" fill="#000000">
<g id="SVGRepo_bgCarrier" stroke-width="0"/>
<g id="SVGRepo_tracerCarrier" stroke-linecap="round" stroke-linejoin="round"/>
<g id="SVGRepo_iconCarrier">
<path fill="#ffffff" d="M18 0C8.059 0 0 8.059 0 18s8.059 18 18 18s18-8.059 18-18S27.941 0 18 0zm13 18c0 2.565-.753 4.95-2.035 6.965L11.036 7.036A12.916 12.916 0 0 1 18 5c7.18 0 13 5.821 13 13zM5 18c0-2.565.753-4.95 2.036-6.964l17.929 17.929A12.93 12.93 0 0 1 18 31c-7.179 0-13-5.82-13-13z"/>
</g>
</svg>